<?xml version="1.0" encoding="utf-8" standalone="no"?>
<!DOCTYPE svg PUBLIC "-//W3C//DTD SVG 1.1//EN"
  "http://www.w3.org/Graphics/SVG/1.1/DTD/svg11.dtd">
<svg xmlns:xlink="http://www.w3.org/1999/xlink" width="748.8pt" height="561.6pt" viewBox="0 0 748.8 561.6" xmlns="http://www.w3.org/2000/svg" version="1.1">
 <metadata>
  <rdf:RDF xmlns:dc="http://purl.org/dc/elements/1.1/" xmlns:cc="http://creativecommons.org/ns#" xmlns:rdf="http://www.w3.org/1999/02/22-rdf-syntax-ns#">
   <cc:Work>
    <dc:type rdf:resource="http://purl.org/dc/dcmitype/StillImage"/>
    <dc:date>2026-09-19T05:46:40.918191</dc:date>
    <dc:format>image/svg+xml</dc:format>
    <dc:creator>
     <cc:Agent>
      <dc:title>Matplotlib v3.10.8, https://matplotlib.org/</dc:title>
     </cc:Agent>
    </dc:creator>
   </cc:Work>
  </rdf:RDF>
 </metadata>
 <defs>
  <style type="text/css">*{stroke-linejoin: round; stroke-linecap: butt}</style>
 </defs>
 <g id="figure_1">
  <g id="patch_1">
   <path d="M 0 561.6 
L 748.8 561.6 
L 748.8 0 
L 0 0 
z
" style="fill: #ffffff"/>
  </g>
  <g id="axes_1">
   <g id="patch_2">
    <path d="M 116.064 480.168 
L 703.872 480.168 
L 703.872 123.552 
L 116.064 123.552 
z
" style="fill: #ffffff"/>
   </g>
   <g id="matplotlib.axis_1">
    <g id="xtick_1">
     <g id="line2d_1">
      <path d="M 116.064 480.168 
L 116.064 123.552 
" clip-path="url(#p9983a94385)" style="fill: none; stroke: #e9ecef; stroke-width: 0.7; stroke-linecap: square"/>
     </g>
     <g id="line2d_2"/>
     <g id="text_1">
      <text style="font-size: 10.5px; font-family: 'DejaVu Sans'; text-anchor: middle; fill: #66717c" x="116.064" y="499.146359" transform="rotate(-0 116.064 499.146359)">0.050</text>
     </g>
    </g>
    <g id="xtick_2">
     <g id="line2d_3">
      <path d="M 200.036571 480.168 
L 200.036571 123.552 
" clip-path="url(#p9983a94385)" style="fill: none; stroke: #e9ecef; stroke-width: 0.7; stroke-linecap: square"/>
     </g>
     <g id="line2d_4"/>
     <g id="text_2">
      <text style="font-size: 10.5px; font-family: 'DejaVu Sans'; text-anchor: middle; fill: #66717c" x="200.036571" y="499.146359" transform="rotate(-0 200.036571 499.146359)">0.055</text>
     </g>
    </g>
    <g id="xtick_3">
     <g id="line2d_5">
      <path d="M 284.009143 480.168 
L 284.009143 123.552 
" clip-path="url(#p9983a94385)" style="fill: none; stroke: #e9ecef; stroke-width: 0.7; stroke-linecap: square"/>
     </g>
     <g id="line2d_6"/>
     <g id="text_3">
      <text style="font-size: 10.5px; font-family: 'DejaVu Sans'; text-anchor: middle; fill: #66717c" x="284.009143" y="499.146359" transform="rotate(-0 284.009143 499.146359)">0.060</text>
     </g>
    </g>
    <g id="xtick_4">
     <g id="line2d_7">
      <path d="M 367.981714 480.168 
L 367.981714 123.552 
" clip-path="url(#p9983a94385)" style="fill: none; stroke: #e9ecef; stroke-width: 0.7; stroke-linecap: square"/>
     </g>
     <g id="line2d_8"/>
     <g id="text_4">
      <text style="font-size: 10.5px; font-family: 'DejaVu Sans'; text-anchor: middle; fill: #66717c" x="367.981714" y="499.146359" transform="rotate(-0 367.981714 499.146359)">0.065</text>
     </g>
    </g>
    <g id="xtick_5">
     <g id="line2d_9">
      <path d="M 451.954286 480.168 
L 451.954286 123.552 
" clip-path="url(#p9983a94385)" style="fill: none; stroke: #e9ecef; stroke-width: 0.7; stroke-linecap: square"/>
     </g>
     <g id="line2d_10"/>
     <g id="text_5">
      <text style="font-size: 10.5px; font-family: 'DejaVu Sans'; text-anchor: middle; fill: #66717c" x="451.954286" y="499.146359" transform="rotate(-0 451.954286 499.146359)">0.070</text>
     </g>
    </g>
    <g id="xtick_6">
     <g id="line2d_11">
      <path d="M 535.926857 480.168 
L 535.926857 123.552 
" clip-path="url(#p9983a94385)" style="fill: none; stroke: #e9ecef; stroke-width: 0.7; stroke-linecap: square"/>
     </g>
     <g id="line2d_12"/>
     <g id="text_6">
      <text style="font-size: 10.5px; font-family: 'DejaVu Sans'; text-anchor: middle; fill: #66717c" x="535.926857" y="499.146359" transform="rotate(-0 535.926857 499.146359)">0.075</text>
     </g>
    </g>
    <g id="xtick_7">
     <g id="line2d_13">
      <path d="M 619.899429 480.168 
L 619.899429 123.552 
" clip-path="url(#p9983a94385)" style="fill: none; stroke: #e9ecef; stroke-width: 0.7; stroke-linecap: square"/>
     </g>
     <g id="line2d_14"/>
     <g id="text_7">
      <text style="font-size: 10.5px; font-family: 'DejaVu Sans'; text-anchor: middle; fill: #66717c" x="619.899429" y="499.146359" transform="rotate(-0 619.899429 499.146359)">0.080</text>
     </g>
    </g>
    <g id="xtick_8">
     <g id="line2d_15">
      <path d="M 703.872 480.168 
L 703.872 123.552 
" clip-path="url(#p9983a94385)" style="fill: none; stroke: #e9ecef; stroke-width: 0.7; stroke-linecap: square"/>
     </g>
     <g id="line2d_16"/>
     <g id="text_8">
      <text style="font-size: 10.5px; font-family: 'DejaVu Sans'; text-anchor: middle; fill: #66717c" x="703.872" y="499.146359" transform="rotate(-0 703.872 499.146359)">0.085</text>
     </g>
    </g>
    <g id="text_9">
     <text style="font-size: 12px; font-family: 'DejaVu Sans'; text-anchor: middle; fill: #29343e" x="409.968" y="527.448156" transform="rotate(-0 409.968 527.448156)">Combined network strength</text>
    </g>
   </g>
   <g id="matplotlib.axis_2">
    <g id="ytick_1">
     <g id="line2d_17"/>
     <g id="text_10">
      <text style="font-size: 12px; font-family: 'DejaVu Sans'; text-anchor: end; fill: #29343e" x="100.064" y="191.381643" transform="rotate(-0 100.064 191.381643)">Market</text>
     </g>
    </g>
    <g id="ytick_2">
     <g id="line2d_18"/>
     <g id="text_11">
      <text style="font-size: 12px; font-family: 'DejaVu Sans'; text-anchor: end; fill: #29343e" x="100.064" y="306.419062" transform="rotate(-0 100.064 306.419062)">FF3</text>
     </g>
    </g>
    <g id="ytick_3">
     <g id="line2d_19"/>
     <g id="text_12">
      <text style="font-size: 12px; font-family: 'DejaVu Sans'; text-anchor: end; fill: #29343e" x="100.064" y="421.456482" transform="rotate(-0 100.064 421.456482)">FF5</text>
     </g>
    </g>
   </g>
   <g id="patch_3">
    <path d="M 116.064 480.168 
L 703.872 480.168 
" style="fill: none; stroke: #bac1c6; stroke-width: 0.7; stroke-linejoin: miter; stroke-linecap: square"/>
   </g>
   <g id="LineCollection_1">
    <path d="M 297.94859 186.822581 
L 389.982528 186.822581 
" clip-path="url(#p9983a94385)" style="fill: none; stroke: #98a4ae; stroke-width: 3.5"/>
   </g>
   <g id="text_13">
    <text style="font-size: 10.7px; font-family: 'DejaVu Sans'; text-anchor: middle; fill: #325b7b" x="459.175927" y="171.867716" transform="rotate(-0 459.175927 171.867716)">0.07043</text>
   </g>
   <g id="LineCollection_2">
    <path d="M 291.230784 301.86 
L 381.753216 301.86 
" clip-path="url(#p9983a94385)" style="fill: none; stroke: #98a4ae; stroke-width: 3.5"/>
   </g>
   <g id="text_14">
    <text style="font-size: 10.7px; font-family: 'DejaVu Sans'; text-anchor: middle; fill: #325b7b" x="596.219163" y="286.905135" transform="rotate(-0 596.219163 286.905135)">0.07859</text>
   </g>
   <g id="LineCollection_3">
    <path d="M 302.986944 416.897419 
L 391.158144 416.897419 
" clip-path="url(#p9983a94385)" style="fill: none; stroke: #98a4ae; stroke-width: 3.5"/>
   </g>
   <g id="text_15">
    <text style="font-size: 10.7px; font-family: 'DejaVu Sans'; text-anchor: middle; fill: #325b7b" x="541.972882" y="401.942555" transform="rotate(-0 541.972882 401.942555)">0.07536</text>
   </g>
   <g id="line2d_20">
    <defs>
     <path id="m79a2bed5cc" d="M 0 3.5 
C 0.928211 3.5 1.81853 3.131218 2.474874 2.474874 
C 3.131218 1.81853 3.5 0.928211 3.5 0 
C 3.5 -0.928211 3.131218 -1.81853 2.474874 -2.474874 
C 1.81853 -3.131218 0.928211 -3.5 0 -3.5 
C -0.928211 -3.5 -1.81853 -3.131218 -2.474874 -2.474874 
C -3.131218 -1.81853 -3.5 -0.928211 -3.5 0 
C -3.5 0.928211 -3.131218 1.81853 -2.474874 2.474874 
C -1.81853 3.131218 -0.928211 3.5 0 3.5 
z
" style="stroke: #ffffff"/>
    </defs>
    <g clip-path="url(#p9983a94385)">
     <use xlink:href="#m79a2bed5cc" x="342.957888" y="186.822581" style="fill: #98a4ae; stroke: #ffffff"/>
    </g>
   </g>
   <g id="line2d_21">
    <defs>
     <path id="mfd2d10c528" d="M -0 4.596194 
L 4.596194 0 
L 0 -4.596194 
L -4.596194 -0 
z
" style="stroke: #325b7b; stroke-linejoin: miter"/>
    </defs>
    <g clip-path="url(#p9983a94385)">
     <use xlink:href="#mfd2d10c528" x="459.175927" y="186.822581" style="fill: #325b7b; stroke: #325b7b; stroke-linejoin: miter"/>
    </g>
   </g>
   <g id="line2d_22">
    <g clip-path="url(#p9983a94385)">
     <use xlink:href="#m79a2bed5cc" x="337.583643" y="301.86" style="fill: #98a4ae; stroke: #ffffff"/>
    </g>
   </g>
   <g id="line2d_23">
    <g clip-path="url(#p9983a94385)">
     <use xlink:href="#mfd2d10c528" x="596.219163" y="301.86" style="fill: #325b7b; stroke: #325b7b; stroke-linejoin: miter"/>
    </g>
   </g>
   <g id="line2d_24">
    <g clip-path="url(#p9983a94385)">
     <use xlink:href="#m79a2bed5cc" x="342.621998" y="416.897419" style="fill: #98a4ae; stroke: #ffffff"/>
    </g>
   </g>
   <g id="line2d_25">
    <g clip-path="url(#p9983a94385)">
     <use xlink:href="#mfd2d10c528" x="541.972882" y="416.897419" style="fill: #325b7b; stroke: #325b7b; stroke-linejoin: miter"/>
    </g>
   </g>
  </g>
  <g id="text_16">
   <text style="font-weight: 500; font-size: 17px; font-family: 'DejaVu Sans'; text-anchor: start; fill: #29343e" x="52.416" y="38.1888" transform="rotate(-0 52.416 38.1888)">Residual network strength</text>
  </g>
  <g id="text_17">
   <text style="font-size: 10.5px; font-family: 'DejaVu Sans'; text-anchor: end; fill: #66717c" x="703.872" y="35.9424" transform="rotate(-0 703.872 35.9424)">2014–2025</text>
  </g>
  <g id="legend_1">
   <g id="line2d_26">
    <path d="M 118.206 81.968928 
L 128.906 81.968928 
L 139.606 81.968928 
" style="fill: none; stroke: #98a4ae; stroke-width: 3.2; stroke-linecap: square"/>
    <defs>
     <path id="me95dc171db" d="M 0 2.5 
C 0.663008 2.5 1.29895 2.236584 1.767767 1.767767 
C 2.236584 1.29895 2.5 0.663008 2.5 0 
C 2.5 -0.663008 2.236584 -1.29895 1.767767 -1.767767 
C 1.29895 -2.236584 0.663008 -2.5 0 -2.5 
C -0.663008 -2.5 -1.29895 -2.236584 -1.767767 -1.767767 
C -2.236584 -1.29895 -2.5 -0.663008 -2.5 0 
C -2.5 0.663008 -2.236584 1.29895 -1.767767 1.767767 
C -1.29895 2.236584 -0.663008 2.5 0 2.5 
z
" style="stroke: #98a4ae"/>
    </defs>
    <g>
     <use xlink:href="#me95dc171db" x="128.906" y="81.968928" style="fill: #98a4ae; stroke: #98a4ae"/>
    </g>
   </g>
   <g id="text_18">
    <text style="font-size: 10.7px; font-family: 'DejaVu Sans'; text-anchor: start; fill: #29343e" x="148.166" y="85.713928" transform="rotate(-0 148.166 85.713928)">Benchmark mean and 95% range</text>
   </g>
   <g id="line2d_27">
    <defs>
     <path id="m3c8717def9" d="M -0 4.242641 
L 4.242641 0 
L 0 -4.242641 
L -4.242641 -0 
z
" style="stroke: #325b7b; stroke-linejoin: miter"/>
    </defs>
    <g>
     <use xlink:href="#m3c8717def9" x="360.184828" y="81.968928" style="fill: #325b7b; stroke: #325b7b; stroke-linejoin: miter"/>
    </g>
   </g>
   <g id="text_19">
    <text style="font-size: 10.7px; font-family: 'DejaVu Sans'; text-anchor: start; fill: #29343e" x="379.444828" y="85.713928" transform="rotate(-0 379.444828 85.713928)">Observed</text>
   </g>
  </g>
 </g>
 <defs>
  <clipPath id="p9983a94385">
   <rect x="116.064" y="123.552" width="587.808" height="356.616"/>
  </clipPath>
 </defs>
</svg>
